<svg xmlns="http://www.w3.org/2000/svg" xmlns:xlink="http://www.w3.org/1999/xlink" width="600" height="400" viewBox="0 0 2400 1600">
<defs>
  <clipPath id="clip850">
    <rect x="0" y="0" width="2400" height="1600"></rect>
  </clipPath>
</defs>
<path clip-path="url(#clip850)" d="M0 1600 L2400 1600 L2400 0 L0 0  Z" fill="#ffffff" fill-rule="evenodd" fill-opacity="1"></path>
<defs>
  <clipPath id="clip851">
    <rect x="480" y="0" width="1681" height="1600"></rect>
  </clipPath>
</defs>
<path clip-path="url(#clip850)" d="M138.959 1486.45 L2352.76 1486.45 L2352.76 47.2441 L138.959 47.2441  Z" fill="#ffffff" fill-rule="evenodd" fill-opacity="1"></path>
<defs>
  <clipPath id="clip852">
    <rect x="138" y="47" width="2215" height="1440"></rect>
  </clipPath>
</defs>
<polyline clip-path="url(#clip852)" style="stroke:#000000; stroke-linecap:round; stroke-linejoin:round; stroke-width:2; stroke-opacity:0.1; fill:none" points="198.829,1486.45 198.829,47.2441 "></polyline>
<polyline clip-path="url(#clip852)" style="stroke:#000000; stroke-linecap:round; stroke-linejoin:round; stroke-width:2; stroke-opacity:0.1; fill:none" points="894.992,1486.45 894.992,47.2441 "></polyline>
<polyline clip-path="url(#clip852)" style="stroke:#000000; stroke-linecap:round; stroke-linejoin:round; stroke-width:2; stroke-opacity:0.1; fill:none" points="1591.15,1486.45 1591.15,47.2441 "></polyline>
<polyline clip-path="url(#clip852)" style="stroke:#000000; stroke-linecap:round; stroke-linejoin:round; stroke-width:2; stroke-opacity:0.1; fill:none" points="2287.32,1486.45 2287.32,47.2441 "></polyline>
<polyline clip-path="url(#clip850)" style="stroke:#000000; stroke-linecap:round; stroke-linejoin:round; stroke-width:4; stroke-opacity:1; fill:none" points="138.959,1486.45 2352.76,1486.45 "></polyline>
<polyline clip-path="url(#clip850)" style="stroke:#000000; stroke-linecap:round; stroke-linejoin:round; stroke-width:4; stroke-opacity:1; fill:none" points="198.829,1486.45 198.829,1467.55 "></polyline>
<polyline clip-path="url(#clip850)" style="stroke:#000000; stroke-linecap:round; stroke-linejoin:round; stroke-width:4; stroke-opacity:1; fill:none" points="894.992,1486.45 894.992,1467.55 "></polyline>
<polyline clip-path="url(#clip850)" style="stroke:#000000; stroke-linecap:round; stroke-linejoin:round; stroke-width:4; stroke-opacity:1; fill:none" points="1591.15,1486.45 1591.15,1467.55 "></polyline>
<polyline clip-path="url(#clip850)" style="stroke:#000000; stroke-linecap:round; stroke-linejoin:round; stroke-width:4; stroke-opacity:1; fill:none" points="2287.32,1486.45 2287.32,1467.55 "></polyline>
<path clip-path="url(#clip850)" d="M198.829 1517.37 Q195.218 1517.37 193.39 1520.93 Q191.584 1524.47 191.584 1531.6 Q191.584 1538.71 193.39 1542.27 Q195.218 1545.82 198.829 1545.82 Q202.464 1545.82 204.269 1542.27 Q206.098 1538.71 206.098 1531.6 Q206.098 1524.47 204.269 1520.93 Q202.464 1517.37 198.829 1517.37 M198.829 1513.66 Q204.64 1513.66 207.695 1518.27 Q210.774 1522.85 210.774 1531.6 Q210.774 1540.33 207.695 1544.94 Q204.64 1549.52 198.829 1549.52 Q193.019 1549.52 189.941 1544.94 Q186.885 1540.33 186.885 1531.6 Q186.885 1522.85 189.941 1518.27 Q193.019 1513.66 198.829 1513.66 Z" fill="#000000" fill-rule="nonzero" fill-opacity="1"></path><path clip-path="url(#clip850)" d="M839.518 1544.91 L847.156 1544.91 L847.156 1518.55 L838.846 1520.21 L838.846 1515.95 L847.11 1514.29 L851.786 1514.29 L851.786 1544.91 L859.425 1544.91 L859.425 1548.85 L839.518 1548.85 L839.518 1544.91 Z" fill="#000000" fill-rule="nonzero" fill-opacity="1"></path><path clip-path="url(#clip850)" d="M878.869 1517.37 Q875.258 1517.37 873.429 1520.93 Q871.624 1524.47 871.624 1531.6 Q871.624 1538.71 873.429 1542.27 Q875.258 1545.82 878.869 1545.82 Q882.503 1545.82 884.309 1542.27 Q886.138 1538.71 886.138 1531.6 Q886.138 1524.47 884.309 1520.93 Q882.503 1517.37 878.869 1517.37 M878.869 1513.66 Q884.679 1513.66 887.735 1518.27 Q890.814 1522.85 890.814 1531.6 Q890.814 1540.33 887.735 1544.94 Q884.679 1549.52 878.869 1549.52 Q873.059 1549.52 869.98 1544.94 Q866.925 1540.33 866.925 1531.6 Q866.925 1522.85 869.98 1518.27 Q873.059 1513.66 878.869 1513.66 Z" fill="#000000" fill-rule="nonzero" fill-opacity="1"></path><path clip-path="url(#clip850)" d="M909.031 1517.37 Q905.42 1517.37 903.591 1520.93 Q901.786 1524.47 901.786 1531.6 Q901.786 1538.71 903.591 1542.27 Q905.42 1545.82 909.031 1545.82 Q912.665 1545.82 914.471 1542.27 Q916.3 1538.71 916.3 1531.6 Q916.3 1524.47 914.471 1520.93 Q912.665 1517.37 909.031 1517.37 M909.031 1513.66 Q914.841 1513.66 917.897 1518.27 Q920.975 1522.85 920.975 1531.6 Q920.975 1540.33 917.897 1544.94 Q914.841 1549.52 909.031 1549.52 Q903.221 1549.52 900.142 1544.94 Q897.087 1540.33 897.087 1531.6 Q897.087 1522.85 900.142 1518.27 Q903.221 1513.66 909.031 1513.66 Z" fill="#000000" fill-rule="nonzero" fill-opacity="1"></path><path clip-path="url(#clip850)" d="M939.193 1517.37 Q935.582 1517.37 933.753 1520.93 Q931.948 1524.47 931.948 1531.6 Q931.948 1538.71 933.753 1542.27 Q935.582 1545.82 939.193 1545.82 Q942.827 1545.82 944.633 1542.27 Q946.461 1538.71 946.461 1531.6 Q946.461 1524.47 944.633 1520.93 Q942.827 1517.37 939.193 1517.37 M939.193 1513.66 Q945.003 1513.66 948.059 1518.27 Q951.137 1522.85 951.137 1531.6 Q951.137 1540.33 948.059 1544.94 Q945.003 1549.52 939.193 1549.52 Q933.383 1549.52 930.304 1544.94 Q927.249 1540.33 927.249 1531.6 Q927.249 1522.85 930.304 1518.27 Q933.383 1513.66 939.193 1513.66 Z" fill="#000000" fill-rule="nonzero" fill-opacity="1"></path><path clip-path="url(#clip850)" d="M1539.77 1544.91 L1556.08 1544.91 L1556.08 1548.85 L1534.14 1548.85 L1534.14 1544.91 Q1536.8 1542.16 1541.39 1537.53 Q1545.99 1532.88 1547.17 1531.53 Q1549.42 1529.01 1550.3 1527.27 Q1551.2 1525.51 1551.2 1523.82 Q1551.2 1521.07 1549.26 1519.33 Q1547.34 1517.6 1544.23 1517.6 Q1542.03 1517.6 1539.58 1518.36 Q1537.15 1519.13 1534.37 1520.68 L1534.37 1515.95 Q1537.2 1514.82 1539.65 1514.24 Q1542.1 1513.66 1544.14 1513.66 Q1549.51 1513.66 1552.71 1516.35 Q1555.9 1519.03 1555.9 1523.52 Q1555.9 1525.65 1555.09 1527.57 Q1554.3 1529.47 1552.2 1532.07 Q1551.62 1532.74 1548.52 1535.95 Q1545.41 1539.15 1539.77 1544.91 Z" fill="#000000" fill-rule="nonzero" fill-opacity="1"></path><path clip-path="url(#clip850)" d="M1575.9 1517.37 Q1572.29 1517.37 1570.46 1520.93 Q1568.65 1524.47 1568.65 1531.6 Q1568.65 1538.71 1570.46 1542.27 Q1572.29 1545.82 1575.9 1545.82 Q1579.53 1545.82 1581.34 1542.27 Q1583.17 1538.71 1583.17 1531.6 Q1583.17 1524.47 1581.34 1520.93 Q1579.53 1517.37 1575.9 1517.37 M1575.9 1513.66 Q1581.71 1513.66 1584.77 1518.27 Q1587.84 1522.85 1587.84 1531.6 Q1587.84 1540.33 1584.77 1544.94 Q1581.71 1549.52 1575.9 1549.52 Q1570.09 1549.52 1567.01 1544.94 Q1563.96 1540.33 1563.96 1531.6 Q1563.96 1522.85 1567.01 1518.27 Q1570.09 1513.66 1575.9 1513.66 Z" fill="#000000" fill-rule="nonzero" fill-opacity="1"></path><path clip-path="url(#clip850)" d="M1606.06 1517.37 Q1602.45 1517.37 1600.62 1520.93 Q1598.82 1524.47 1598.82 1531.6 Q1598.82 1538.71 1600.62 1542.27 Q1602.45 1545.82 1606.06 1545.82 Q1609.7 1545.82 1611.5 1542.27 Q1613.33 1538.71 1613.33 1531.6 Q1613.33 1524.47 1611.5 1520.93 Q1609.7 1517.37 1606.06 1517.37 M1606.06 1513.66 Q1611.87 1513.66 1614.93 1518.27 Q1618.01 1522.85 1618.01 1531.6 Q1618.01 1540.33 1614.93 1544.94 Q1611.87 1549.52 1606.06 1549.52 Q1600.25 1549.52 1597.17 1544.94 Q1594.12 1540.33 1594.12 1531.6 Q1594.12 1522.85 1597.17 1518.27 Q1600.25 1513.66 1606.06 1513.66 Z" fill="#000000" fill-rule="nonzero" fill-opacity="1"></path><path clip-path="url(#clip850)" d="M1636.22 1517.37 Q1632.61 1517.37 1630.78 1520.93 Q1628.98 1524.47 1628.98 1531.6 Q1628.98 1538.71 1630.78 1542.27 Q1632.61 1545.82 1636.22 1545.82 Q1639.86 1545.82 1641.66 1542.27 Q1643.49 1538.71 1643.49 1531.6 Q1643.49 1524.47 1641.66 1520.93 Q1639.86 1517.37 1636.22 1517.37 M1636.22 1513.66 Q1642.03 1513.66 1645.09 1518.27 Q1648.17 1522.85 1648.17 1531.6 Q1648.17 1540.33 1645.09 1544.94 Q1642.03 1549.52 1636.22 1549.52 Q1630.41 1549.52 1627.33 1544.94 Q1624.28 1540.33 1624.28 1531.6 Q1624.28 1522.85 1627.33 1518.27 Q1630.41 1513.66 1636.22 1513.66 Z" fill="#000000" fill-rule="nonzero" fill-opacity="1"></path><path clip-path="url(#clip850)" d="M2246 1530.21 Q2249.35 1530.93 2251.23 1533.2 Q2253.13 1535.47 2253.13 1538.8 Q2253.13 1543.92 2249.61 1546.72 Q2246.09 1549.52 2239.61 1549.52 Q2237.43 1549.52 2235.12 1549.08 Q2232.83 1548.66 2230.37 1547.81 L2230.37 1543.29 Q2232.32 1544.43 2234.63 1545.01 Q2236.95 1545.58 2239.47 1545.58 Q2243.87 1545.58 2246.16 1543.85 Q2248.47 1542.11 2248.47 1538.8 Q2248.47 1535.75 2246.32 1534.03 Q2244.19 1532.3 2240.37 1532.3 L2236.34 1532.3 L2236.34 1528.45 L2240.56 1528.45 Q2244.01 1528.45 2245.84 1527.09 Q2247.66 1525.7 2247.66 1523.11 Q2247.66 1520.45 2245.77 1519.03 Q2243.89 1517.6 2240.37 1517.6 Q2238.45 1517.6 2236.25 1518.01 Q2234.05 1518.43 2231.41 1519.31 L2231.41 1515.14 Q2234.08 1514.4 2236.39 1514.03 Q2238.73 1513.66 2240.79 1513.66 Q2246.11 1513.66 2249.21 1516.09 Q2252.32 1518.5 2252.32 1522.62 Q2252.32 1525.49 2250.67 1527.48 Q2249.03 1529.45 2246 1530.21 Z" fill="#000000" fill-rule="nonzero" fill-opacity="1"></path><path clip-path="url(#clip850)" d="M2271.99 1517.37 Q2268.38 1517.37 2266.55 1520.93 Q2264.75 1524.47 2264.75 1531.6 Q2264.75 1538.71 2266.55 1542.27 Q2268.38 1545.82 2271.99 1545.82 Q2275.63 1545.82 2277.43 1542.27 Q2279.26 1538.71 2279.26 1531.6 Q2279.26 1524.47 2277.43 1520.93 Q2275.63 1517.37 2271.99 1517.37 M2271.99 1513.66 Q2277.8 1513.66 2280.86 1518.27 Q2283.94 1522.85 2283.94 1531.6 Q2283.94 1540.33 2280.86 1544.94 Q2277.8 1549.52 2271.99 1549.52 Q2266.18 1549.52 2263.1 1544.94 Q2260.05 1540.33 2260.05 1531.6 Q2260.05 1522.85 2263.1 1518.27 Q2266.18 1513.66 2271.99 1513.66 Z" fill="#000000" fill-rule="nonzero" fill-opacity="1"></path><path clip-path="url(#clip850)" d="M2302.15 1517.37 Q2298.54 1517.37 2296.71 1520.93 Q2294.91 1524.47 2294.91 1531.6 Q2294.91 1538.71 2296.71 1542.27 Q2298.54 1545.82 2302.15 1545.82 Q2305.79 1545.82 2307.59 1542.27 Q2309.42 1538.71 2309.42 1531.6 Q2309.42 1524.47 2307.59 1520.93 Q2305.79 1517.37 2302.15 1517.37 M2302.15 1513.66 Q2307.96 1513.66 2311.02 1518.27 Q2314.1 1522.85 2314.1 1531.6 Q2314.1 1540.33 2311.02 1544.94 Q2307.96 1549.52 2302.15 1549.52 Q2296.34 1549.52 2293.27 1544.94 Q2290.21 1540.33 2290.21 1531.6 Q2290.21 1522.85 2293.27 1518.27 Q2296.34 1513.66 2302.15 1513.66 Z" fill="#000000" fill-rule="nonzero" fill-opacity="1"></path><path clip-path="url(#clip850)" d="M2332.32 1517.37 Q2328.71 1517.37 2326.88 1520.93 Q2325.07 1524.47 2325.07 1531.6 Q2325.07 1538.71 2326.88 1542.27 Q2328.71 1545.82 2332.32 1545.82 Q2335.95 1545.82 2337.76 1542.27 Q2339.58 1538.71 2339.58 1531.6 Q2339.58 1524.47 2337.76 1520.93 Q2335.95 1517.37 2332.32 1517.37 M2332.32 1513.66 Q2338.13 1513.66 2341.18 1518.27 Q2344.26 1522.85 2344.26 1531.6 Q2344.26 1540.33 2341.18 1544.94 Q2338.13 1549.52 2332.32 1549.52 Q2326.51 1549.52 2323.43 1544.94 Q2320.37 1540.33 2320.37 1531.6 Q2320.37 1522.85 2323.43 1518.27 Q2326.51 1513.66 2332.32 1513.66 Z" fill="#000000" fill-rule="nonzero" fill-opacity="1"></path><polyline clip-path="url(#clip852)" style="stroke:#000000; stroke-linecap:round; stroke-linejoin:round; stroke-width:2; stroke-opacity:0.1; fill:none" points="138.959,1445.72 2352.76,1445.72 "></polyline>
<polyline clip-path="url(#clip852)" style="stroke:#000000; stroke-linecap:round; stroke-linejoin:round; stroke-width:2; stroke-opacity:0.1; fill:none" points="138.959,1044.21 2352.76,1044.21 "></polyline>
<polyline clip-path="url(#clip852)" style="stroke:#000000; stroke-linecap:round; stroke-linejoin:round; stroke-width:2; stroke-opacity:0.1; fill:none" points="138.959,642.704 2352.76,642.704 "></polyline>
<polyline clip-path="url(#clip852)" style="stroke:#000000; stroke-linecap:round; stroke-linejoin:round; stroke-width:2; stroke-opacity:0.1; fill:none" points="138.959,241.198 2352.76,241.198 "></polyline>
<polyline clip-path="url(#clip850)" style="stroke:#000000; stroke-linecap:round; stroke-linejoin:round; stroke-width:4; stroke-opacity:1; fill:none" points="138.959,1486.45 138.959,47.2441 "></polyline>
<polyline clip-path="url(#clip850)" style="stroke:#000000; stroke-linecap:round; stroke-linejoin:round; stroke-width:4; stroke-opacity:1; fill:none" points="138.959,1445.72 157.857,1445.72 "></polyline>
<polyline clip-path="url(#clip850)" style="stroke:#000000; stroke-linecap:round; stroke-linejoin:round; stroke-width:4; stroke-opacity:1; fill:none" points="138.959,1044.21 157.857,1044.21 "></polyline>
<polyline clip-path="url(#clip850)" style="stroke:#000000; stroke-linecap:round; stroke-linejoin:round; stroke-width:4; stroke-opacity:1; fill:none" points="138.959,642.704 157.857,642.704 "></polyline>
<polyline clip-path="url(#clip850)" style="stroke:#000000; stroke-linecap:round; stroke-linejoin:round; stroke-width:4; stroke-opacity:1; fill:none" points="138.959,241.198 157.857,241.198 "></polyline>
<path clip-path="url(#clip850)" d="M91.0151 1431.51 Q87.404 1431.51 85.5753 1435.08 Q83.7697 1438.62 83.7697 1445.75 Q83.7697 1452.86 85.5753 1456.42 Q87.404 1459.96 91.0151 1459.96 Q94.6493 1459.96 96.4548 1456.42 Q98.2835 1452.86 98.2835 1445.75 Q98.2835 1438.62 96.4548 1435.08 Q94.6493 1431.51 91.0151 1431.51 M91.0151 1427.81 Q96.8252 1427.81 99.8808 1432.42 Q102.959 1437 102.959 1445.75 Q102.959 1454.48 99.8808 1459.08 Q96.8252 1463.67 91.0151 1463.67 Q85.2049 1463.67 82.1262 1459.08 Q79.0707 1454.48 79.0707 1445.75 Q79.0707 1437 82.1262 1432.42 Q85.2049 1427.81 91.0151 1427.81 Z" fill="#000000" fill-rule="nonzero" fill-opacity="1"></path><path clip-path="url(#clip850)" d="M82.0568 1026.93 L100.413 1026.93 L100.413 1030.87 L86.3392 1030.87 L86.3392 1039.34 Q87.3577 1038.99 88.3762 1038.83 Q89.3947 1038.64 90.4132 1038.64 Q96.2002 1038.64 99.5798 1041.81 Q102.959 1044.99 102.959 1050.4 Q102.959 1055.98 99.4872 1059.08 Q96.015 1062.16 89.6956 1062.16 Q87.5197 1062.16 85.2512 1061.79 Q83.0058 1061.42 80.5984 1060.68 L80.5984 1055.98 Q82.6818 1057.12 84.904 1057.67 Q87.1262 1058.23 89.603 1058.23 Q93.6076 1058.23 95.9456 1056.12 Q98.2835 1054.01 98.2835 1050.4 Q98.2835 1046.79 95.9456 1044.68 Q93.6076 1042.58 89.603 1042.58 Q87.728 1042.58 85.8531 1042.99 Q84.0012 1043.41 82.0568 1044.29 L82.0568 1026.93 Z" fill="#000000" fill-rule="nonzero" fill-opacity="1"></path><path clip-path="url(#clip850)" d="M51.6634 656.049 L59.3023 656.049 L59.3023 629.683 L50.9921 631.35 L50.9921 627.091 L59.256 625.424 L63.9319 625.424 L63.9319 656.049 L71.5707 656.049 L71.5707 659.984 L51.6634 659.984 L51.6634 656.049 Z" fill="#000000" fill-rule="nonzero" fill-opacity="1"></path><path clip-path="url(#clip850)" d="M91.0151 628.503 Q87.404 628.503 85.5753 632.068 Q83.7697 635.609 83.7697 642.739 Q83.7697 649.845 85.5753 653.41 Q87.404 656.952 91.0151 656.952 Q94.6493 656.952 96.4548 653.41 Q98.2835 649.845 98.2835 642.739 Q98.2835 635.609 96.4548 632.068 Q94.6493 628.503 91.0151 628.503 M91.0151 624.799 Q96.8252 624.799 99.8808 629.406 Q102.959 633.989 102.959 642.739 Q102.959 651.466 99.8808 656.072 Q96.8252 660.655 91.0151 660.655 Q85.2049 660.655 82.1262 656.072 Q79.0707 651.466 79.0707 642.739 Q79.0707 633.989 82.1262 629.406 Q85.2049 624.799 91.0151 624.799 Z" fill="#000000" fill-rule="nonzero" fill-opacity="1"></path><path clip-path="url(#clip850)" d="M52.6588 254.543 L60.2976 254.543 L60.2976 228.177 L51.9875 229.844 L51.9875 225.585 L60.2513 223.918 L64.9272 223.918 L64.9272 254.543 L72.5661 254.543 L72.5661 258.478 L52.6588 258.478 L52.6588 254.543 Z" fill="#000000" fill-rule="nonzero" fill-opacity="1"></path><path clip-path="url(#clip850)" d="M82.0568 223.918 L100.413 223.918 L100.413 227.853 L86.3392 227.853 L86.3392 236.325 Q87.3577 235.978 88.3762 235.816 Q89.3947 235.631 90.4132 235.631 Q96.2002 235.631 99.5798 238.802 Q102.959 241.973 102.959 247.39 Q102.959 252.969 99.4872 256.071 Q96.015 259.149 89.6956 259.149 Q87.5197 259.149 85.2512 258.779 Q83.0058 258.409 80.5984 257.668 L80.5984 252.969 Q82.6818 254.103 84.904 254.659 Q87.1262 255.214 89.603 255.214 Q93.6076 255.214 95.9456 253.108 Q98.2835 251.001 98.2835 247.39 Q98.2835 243.779 95.9456 241.673 Q93.6076 239.566 89.603 239.566 Q87.728 239.566 85.8531 239.983 Q84.0012 240.399 82.0568 241.279 L82.0568 223.918 Z" fill="#000000" fill-rule="nonzero" fill-opacity="1"></path><polyline clip-path="url(#clip852)" style="stroke:#009af9; stroke-linecap:round; stroke-linejoin:round; stroke-width:4; stroke-opacity:1; fill:none" points="201.614,1445.72 897.776,1394.5 1593.94,1023.56 2290.1,87.9763 "></polyline>
<polyline clip-path="url(#clip852)" style="stroke:#e26f46; stroke-linecap:round; stroke-linejoin:round; stroke-width:4; stroke-opacity:1; fill:none" points="201.614,1445.71 897.776,1442.46 1593.94,1423.16 2290.1,1375.95 "></polyline>
<path clip-path="url(#clip850)" d="M212.753 250.738 L486.563 250.738 L486.563 95.2176 L212.753 95.2176  Z" fill="#ffffff" fill-rule="evenodd" fill-opacity="1"></path>
<polyline clip-path="url(#clip850)" style="stroke:#000000; stroke-linecap:round; stroke-linejoin:round; stroke-width:4; stroke-opacity:1; fill:none" points="212.753,250.738 486.563,250.738 486.563,95.2176 212.753,95.2176 212.753,250.738 "></polyline>
<polyline clip-path="url(#clip850)" style="stroke:#009af9; stroke-linecap:round; stroke-linejoin:round; stroke-width:4; stroke-opacity:1; fill:none" points="237.35,147.058 384.937,147.058 "></polyline>
<path clip-path="url(#clip850)" d="M423.377 166.745 Q421.572 171.375 419.859 172.787 Q418.146 174.199 415.275 174.199 L411.873 174.199 L411.873 170.634 L414.373 170.634 Q416.132 170.634 417.104 169.8 Q418.076 168.967 419.257 165.865 L420.021 163.921 L409.535 138.412 L414.048 138.412 L422.15 158.689 L430.252 138.412 L434.766 138.412 L423.377 166.745 Z" fill="#000000" fill-rule="nonzero" fill-opacity="1"></path><path clip-path="url(#clip850)" d="M442.058 160.402 L449.696 160.402 L449.696 134.037 L441.386 135.703 L441.386 131.444 L449.65 129.778 L454.326 129.778 L454.326 160.402 L461.965 160.402 L461.965 164.338 L442.058 164.338 L442.058 160.402 Z" fill="#000000" fill-rule="nonzero" fill-opacity="1"></path><polyline clip-path="url(#clip850)" style="stroke:#e26f46; stroke-linecap:round; stroke-linejoin:round; stroke-width:4; stroke-opacity:1; fill:none" points="237.35,198.898 384.937,198.898 "></polyline>
<path clip-path="url(#clip850)" d="M423.377 218.585 Q421.572 223.215 419.859 224.627 Q418.146 226.039 415.275 226.039 L411.873 226.039 L411.873 222.474 L414.373 222.474 Q416.132 222.474 417.104 221.64 Q418.076 220.807 419.257 217.705 L420.021 215.761 L409.535 190.252 L414.048 190.252 L422.15 210.529 L430.252 190.252 L434.766 190.252 L423.377 218.585 Z" fill="#000000" fill-rule="nonzero" fill-opacity="1"></path><path clip-path="url(#clip850)" d="M445.275 212.242 L461.594 212.242 L461.594 216.178 L439.65 216.178 L439.65 212.242 Q442.312 209.488 446.895 204.858 Q451.502 200.205 452.682 198.863 Q454.928 196.34 455.807 194.604 Q456.71 192.844 456.71 191.155 Q456.71 188.4 454.766 186.664 Q452.845 184.928 449.743 184.928 Q447.544 184.928 445.09 185.692 Q442.659 186.455 439.882 188.006 L439.882 183.284 Q442.706 182.15 445.159 181.571 Q447.613 180.993 449.65 180.993 Q455.02 180.993 458.215 183.678 Q461.409 186.363 461.409 190.854 Q461.409 192.983 460.599 194.905 Q459.812 196.803 457.706 199.395 Q457.127 200.067 454.025 203.284 Q450.923 206.479 445.275 212.242 Z" fill="#000000" fill-rule="nonzero" fill-opacity="1"></path></svg>